<?xml version="1.0" encoding="UTF-8" standalone="no"?>
<svg width="640px" height="480px" viewBox="0 0 640 480" version="1.1" xmlns="http://www.w3.org/2000/svg" xmlns:xlink="http://www.w3.org/1999/xlink">
    <!-- Generator: Sketch 3.6.1 (26313) - http://www.bohemiancoding.com/sketch -->
    <title>map_reduce</title>
    <desc>Created with Sketch.</desc>
    <defs>
        <filter x="-50%" y="-50%" width="200%" height="200%" filterUnits="objectBoundingBox" id="filter-1">
            <feOffset dx="0" dy="4" in="SourceAlpha" result="shadowOffsetOuter1"></feOffset>
            <feGaussianBlur stdDeviation="3.5" in="shadowOffsetOuter1" result="shadowBlurOuter1"></feGaussianBlur>
            <feColorMatrix values="0 0 0 0 0   0 0 0 0 0   0 0 0 0 0  0 0 0 0.35 0" in="shadowBlurOuter1" type="matrix" result="shadowMatrixOuter1"></feColorMatrix>
            <feMerge>
                <feMergeNode in="shadowMatrixOuter1"></feMergeNode>
                <feMergeNode in="SourceGraphic"></feMergeNode>
            </feMerge>
        </filter>
        <filter x="-50%" y="-50%" width="200%" height="200%" filterUnits="objectBoundingBox" id="filter-2">
            <feOffset dx="0" dy="4" in="SourceAlpha" result="shadowOffsetOuter1"></feOffset>
            <feGaussianBlur stdDeviation="3.5" in="shadowOffsetOuter1" result="shadowBlurOuter1"></feGaussianBlur>
            <feColorMatrix values="0 0 0 0 0   0 0 0 0 0   0 0 0 0 0  0 0 0 0.35 0" in="shadowBlurOuter1" type="matrix" result="shadowMatrixOuter1"></feColorMatrix>
            <feMerge>
                <feMergeNode in="shadowMatrixOuter1"></feMergeNode>
                <feMergeNode in="SourceGraphic"></feMergeNode>
            </feMerge>
        </filter>
        <filter x="-50%" y="-50%" width="200%" height="200%" filterUnits="objectBoundingBox" id="filter-3">
            <feOffset dx="0" dy="4" in="SourceAlpha" result="shadowOffsetOuter1"></feOffset>
            <feGaussianBlur stdDeviation="3.5" in="shadowOffsetOuter1" result="shadowBlurOuter1"></feGaussianBlur>
            <feColorMatrix values="0 0 0 0 0   0 0 0 0 0   0 0 0 0 0  0 0 0 0.35 0" in="shadowBlurOuter1" type="matrix" result="shadowMatrixOuter1"></feColorMatrix>
            <feMerge>
                <feMergeNode in="shadowMatrixOuter1"></feMergeNode>
                <feMergeNode in="SourceGraphic"></feMergeNode>
            </feMerge>
        </filter>
        <filter x="-50%" y="-50%" width="200%" height="200%" filterUnits="objectBoundingBox" id="filter-4">
            <feOffset dx="0" dy="4" in="SourceAlpha" result="shadowOffsetOuter1"></feOffset>
            <feGaussianBlur stdDeviation="3.5" in="shadowOffsetOuter1" result="shadowBlurOuter1"></feGaussianBlur>
            <feColorMatrix values="0 0 0 0 0   0 0 0 0 0   0 0 0 0 0  0 0 0 0.35 0" in="shadowBlurOuter1" type="matrix" result="shadowMatrixOuter1"></feColorMatrix>
            <feMerge>
                <feMergeNode in="shadowMatrixOuter1"></feMergeNode>
                <feMergeNode in="SourceGraphic"></feMergeNode>
            </feMerge>
        </filter>
        <filter x="-50%" y="-50%" width="200%" height="200%" filterUnits="objectBoundingBox" id="filter-5">
            <feOffset dx="0" dy="4" in="SourceAlpha" result="shadowOffsetOuter1"></feOffset>
            <feGaussianBlur stdDeviation="3.5" in="shadowOffsetOuter1" result="shadowBlurOuter1"></feGaussianBlur>
            <feColorMatrix values="0 0 0 0 0   0 0 0 0 0   0 0 0 0 0  0 0 0 0.35 0" in="shadowBlurOuter1" type="matrix" result="shadowMatrixOuter1"></feColorMatrix>
            <feMerge>
                <feMergeNode in="shadowMatrixOuter1"></feMergeNode>
                <feMergeNode in="SourceGraphic"></feMergeNode>
            </feMerge>
        </filter>
    </defs>
    <g id="Page-1" stroke="none" stroke-width="1" fill="none" fill-rule="evenodd">
        <g id="map_reduce">
            <g id="Computer" transform="translate(36.000000, 29.000000)" filter="url(#filter-1)" fill="#B1D8E5">
                <path d="M72.2973568,164.7 L121.002386,164.7 C123.759558,164.7 126,162.462981 126,159.703479 L126,4.99652073 C126,2.23453819 123.762492,0 121.002386,0 L4.99761351,0 C2.24044198,0 0,2.23701853 0,4.99652073 L0,159.703479 C0,162.465462 2.23750778,164.7 4.99761351,164.7 L53.7026432,164.7 L44.4052863,183 L81.5947137,183 L72.2973568,164.7 Z" id="Combined-Shape"></path>
            </g>
            <g id="Computer" transform="translate(172.000000, 29.000000)" filter="url(#filter-2)" fill="#B1D8E5">
                <path d="M72.2973568,164.7 L121.002386,164.7 C123.759558,164.7 126,162.462981 126,159.703479 L126,4.99652073 C126,2.23453819 123.762492,0 121.002386,0 L4.99761351,0 C2.24044198,0 0,2.23701853 0,4.99652073 L0,159.703479 C0,162.465462 2.23750778,164.7 4.99761351,164.7 L53.7026432,164.7 L44.4052863,183 L81.5947137,183 L72.2973568,164.7 Z" id="Combined-Shape"></path>
            </g>
            <g id="Computer" transform="translate(306.000000, 29.000000)" filter="url(#filter-3)" fill="#B1D8E5">
                <path d="M72.2973568,164.7 L121.002386,164.7 C123.759558,164.7 126,162.462981 126,159.703479 L126,4.99652073 C126,2.23453819 123.762492,0 121.002386,0 L4.99761351,0 C2.24044198,0 0,2.23701853 0,4.99652073 L0,159.703479 C0,162.465462 2.23750778,164.7 4.99761351,164.7 L53.7026432,164.7 L44.4052863,183 L81.5947137,183 L72.2973568,164.7 Z" id="Combined-Shape"></path>
            </g>
            <g id="Computer" transform="translate(274.000000, 314.000000)" filter="url(#filter-4)" fill="#B1D8E5">
                <path d="M54.5099119,124.2 L89.9928519,124.2 C92.7685212,124.2 95,121.959961 95,119.196733 L95,5.00326747 C95,2.23501614 92.7582235,0 89.9928519,0 L5.00714805,0 C2.23147885,0 0,2.24003915 0,5.00326747 L0,119.196733 C0,121.964984 2.24177654,124.2 5.00714805,124.2 L40.4900881,124.2 L33.4801762,138 L61.5198238,138 L54.5099119,124.2 Z" id="Combined-Shape"></path>
            </g>
            <g id="Computer" transform="translate(479.000000, 29.000000)" filter="url(#filter-5)" fill="#B1D8E5">
                <path d="M72.2973568,164.7 L121.002386,164.7 C123.759558,164.7 126,162.462981 126,159.703479 L126,4.99652073 C126,2.23453819 123.762492,0 121.002386,0 L4.99761351,0 C2.24044198,0 0,2.23701853 0,4.99652073 L0,159.703479 C0,162.465462 2.23750778,164.7 4.99761351,164.7 L53.7026432,164.7 L44.4052863,183 L81.5947137,183 L72.2973568,164.7 Z" id="Combined-Shape"></path>
            </g>
            <text id="Mapper-1" font-family="HelveticaNeue-Bold, Helvetica Neue" font-size="24" font-weight="bold" fill="#313C40">
                <tspan x="36" y="235">Mapper 1</tspan>
            </text>
            <text id="Reducer" font-family="HelveticaNeue-Bold, Helvetica Neue" font-size="24" font-weight="bold" fill="#313C40">
                <tspan x="272" y="475">Reducer</tspan>
            </text>
            <text id="Mapper-7" font-family="HelveticaNeue-Bold, Helvetica Neue" font-size="24" font-weight="bold" fill="#313C40">
                <tspan x="479" y="235">Mapper 7</tspan>
            </text>
            <text id="Mapper-3" font-family="HelveticaNeue-Bold, Helvetica Neue" font-size="24" font-weight="bold" fill="#313C40">
                <tspan x="306" y="235">Mapper 3</tspan>
            </text>
            <text id="Mapper-2" font-family="HelveticaNeue-Bold, Helvetica Neue" font-size="24" font-weight="bold" fill="#313C40">
                <tspan x="172" y="235">Mapper 2</tspan>
            </text>
            <g id="Group" transform="translate(47.000000, 42.000000)">
                <rect id="Rectangle-9" stroke="#E0E0E0" fill="#94B4BF" x="0" y="0" width="70" height="22"></rect>
                <text id="Block-1" font-family="HelveticaNeue-Bold, Helvetica Neue" font-size="14" font-weight="bold" fill="#313C40">
                    <tspan x="8.115" y="15">Block 1</tspan>
                </text>
            </g>
            <g id="Group-2" transform="translate(179.000000, 42.000000)">
                <rect id="Rectangle-9" stroke="#E0E0E0" fill="#94B4BF" x="0" y="0" width="70" height="22"></rect>
                <text id="Block-2" font-family="HelveticaNeue-Bold, Helvetica Neue" font-size="14" font-weight="bold" fill="#313C40">
                    <tspan x="10.115" y="15">Block 2</tspan>
                </text>
            </g>
            <g id="Group-3" transform="translate(317.000000, 42.000000)">
                <rect id="Rectangle-9" stroke="#E0E0E0" fill="#94B4BF" x="0" y="0" width="70" height="22"></rect>
                <text id="Block-3" font-family="HelveticaNeue-Bold, Helvetica Neue" font-size="14" font-weight="bold" fill="#313C40">
                    <tspan x="10.115" y="15">Block 3</tspan>
                </text>
            </g>
            <g id="Group-5" transform="translate(489.000000, 42.000000)">
                <rect id="Rectangle-9" stroke="#E0E0E0" fill="#94B4BF" x="0" y="0" width="21" height="22"></rect>
                <text id="B7" font-family="HelveticaNeue-Bold, Helvetica Neue" font-size="14" font-weight="bold" fill="#313C40">
                    <tspan x="2.18" y="15">B7</tspan>
                </text>
            </g>
            <text id="…" font-family="HelveticaNeue-Bold, Helvetica Neue" font-size="14" font-weight="bold" fill="#313C40">
                <tspan x="449" y="104">…</tspan>
            </text>
            <path d="M162,252 L225.466579,303.05003" id="Path-5" stroke="#979797" stroke-width="3"></path>
            <path id="Path-5-decoration-1" d="M215.170833,298.618596 L225.466579,303.05003 L218.931422,293.943344" stroke="#979797" stroke-width="3"></path>
            <path d="M242,252 L287.5,302.5" id="Path-5" stroke="#979797" stroke-width="3"></path>
            <path id="Path-5-decoration-1" d="M278.042008,296.484488 L287.5,302.5 L282.499578,292.468261" stroke="#979797" stroke-width="3"></path>
            <path d="M360,252 L343.5,302.5" id="Path-5" stroke="#979797" stroke-width="3"></path>
            <path id="Path-5-decoration-1" d="M344.002567,291.302347 L343.5,302.5 L349.70586,293.165799" stroke="#979797" stroke-width="3"></path>
            <path d="M496,252 L384.5,304.5" id="Path-5" stroke="#979797" stroke-width="3"></path>
            <path id="Path-5-decoration-1" d="M392.993072,297.185102 L384.5,304.5 L395.549026,302.613462" stroke="#979797" stroke-width="3"></path>
            <path d="M162,252 L225.466579,303.05003" id="Path-5" stroke="#979797" stroke-width="3"></path>
            <path id="Path-5-decoration-1" d="M215.170833,298.618596 L225.466579,303.05003 L218.931422,293.943344" stroke="#979797" stroke-width="3"></path>
            <g id="loop" transform="translate(62.000000, 26.000000)" stroke="#62787F" stroke-width="2">
                <path d="M5.27881986,13.6852199 C-16.9501031,-2.74237421 55.4716044,-5.05862154 33.9005807,13.6852194" id="Path-1"></path>
                <path d="M34,9 L35.0081962,14.0695151" id="Path-2"></path>
                <path d="M34,13.1420859 C36.2019845,12.7613906 38.403969,12.3806953 40.6059535,12" id="Path-3"></path>
            </g>
            <g id="loop" transform="translate(196.000000, 26.000000)" stroke="#62787F" stroke-width="2">
                <path d="M5.27881986,13.6852199 C-16.9501031,-2.74237421 55.4716044,-5.05862154 33.9005807,13.6852194" id="Path-1"></path>
                <path d="M34,9 L35.0081962,14.0695151" id="Path-2"></path>
                <path d="M34,13.1420859 C36.2019845,12.7613906 38.403969,12.3806953 40.6059535,12" id="Path-3"></path>
            </g>
            <g id="loop" transform="translate(332.000000, 26.000000)" stroke="#62787F" stroke-width="2">
                <path d="M5.27881986,13.6852199 C-16.9501031,-2.74237421 55.4716044,-5.05862154 33.9005807,13.6852194" id="Path-1"></path>
                <path d="M34,9 L35.0081962,14.0695151" id="Path-2"></path>
                <path d="M34,13.1420859 C36.2019845,12.7613906 38.403969,12.3806953 40.6059535,12" id="Path-3"></path>
            </g>
            <g id="loop" transform="translate(489.000000, 26.000000)" stroke="#62787F" stroke-width="2">
                <path d="M5.27881986,13.6852199 C-16.9501031,-2.74237421 55.4716044,-5.05862154 33.9005807,13.6852194" id="Path-1"></path>
                <path d="M34,9 L35.0081962,14.0695151" id="Path-2"></path>
                <path d="M34,13.1420859 C36.2019845,12.7613906 38.403969,12.3806953 40.6059535,12" id="Path-3"></path>
            </g>
        </g>
    </g>
</svg>